<?xml version="1.0" standalone="no"?>
<!DOCTYPE svg PUBLIC "-//W3C//DTD SVG 20010904//EN"
 "http://www.w3.org/TR/2001/REC-SVG-20010904/DTD/svg10.dtd">
<svg version="1.0" xmlns="http://www.w3.org/2000/svg"
 width="1890.000000pt" height="1417.000000pt" viewBox="0 0 1890.000000 1417.000000"
 preserveAspectRatio="xMidYMid meet">

<g transform="translate(0.000000,1417.000000) scale(0.100000,-0.100000)"
fill="#000000" stroke="none">
<path d="M6448 8615 c-714 -98 -1272 -634 -1406 -1350 -23 -124 -23 -426 0
-550 120 -643 586 -1149 1207 -1311 635 -165 1310 63 1713 581 166 213 275
456 326 730 23 124 23 426 0 550 -120 643 -586 1149 -1207 1311 -199 51 -433
66 -633 39z m492 -59 c337 -62 621 -212 860 -455 250 -254 398 -556 446 -911
51 -386 -50 -793 -279 -1117 -76 -107 -246 -281 -347 -355 -206 -151 -434
-249 -685 -296 -124 -23 -416 -23 -540 0 -921 171 -1503 1064 -1276 1956 158
619 688 1098 1306 1182 50 6 97 13 105 15 36 9 333 -5 410 -19z"/>
<path d="M6420 7776 c0 -3 -94 -357 -210 -787 -159 -591 -207 -785 -197 -791
6 -4 114 -8 238 -8 208 0 227 1 231 18 264 986 383 1422 388 1422 6 0 370
-1346 370 -1368 0 -9 -38 -12 -129 -12 l-129 0 -16 68 c-9 37 -26 102 -38 145
l-20 77 -159 0 -159 0 0 -25 0 -25 140 0 139 0 9 -32 c5 -18 22 -86 38 -150
l29 -118 188 0 187 0 0 25 c0 14 -4 33 -10 43 -7 13 -410 1501 -410 1516 0 1
-13 3 -29 3 -28 0 -31 -4 -46 -61 -9 -34 -101 -376 -204 -761 l-188 -700 -176
-3 c-138 -2 -177 0 -177 10 0 7 90 348 200 757 110 410 199 745 197 746 -6 5
-57 15 -57 11z"/>
<path d="M9610 7600 l0 -480 65 0 65 0 0 480 0 480 -65 0 -65 0 0 -480z"/>
<path d="M8895 7598 c-115 -248 -212 -455 -213 -460 -2 -5 29 -8 68 -6 l73 3
45 103 46 102 191 0 191 0 44 -105 44 -105 73 0 72 0 -33 73 c-18 39 -111 246
-206 460 -96 213 -177 387 -180 387 -3 0 -99 -203 -215 -452z m284 8 c34 -77
59 -141 57 -143 -2 -2 -62 -2 -134 -1 l-131 3 67 147 c37 81 70 144 74 140 3
-4 34 -70 67 -146z"/>
<path d="M11188 7960 c-25 -26 -29 -36 -24 -63 9 -46 37 -69 81 -69 44 0 72
23 81 69 5 27 1 37 -24 63 -19 18 -41 30 -57 30 -16 0 -38 -12 -57 -30z"/>
<path d="M10046 7674 c-59 -21 -98 -56 -131 -115 -37 -69 -47 -197 -21 -276
37 -110 127 -173 250 -173 102 0 142 16 209 81 31 32 57 62 57 67 0 5 -23 21
-51 37 l-51 27 -43 -48 -43 -49 -65 0 c-56 0 -69 4 -92 25 -15 14 -34 39 -41
57 -28 65 -35 63 187 63 l202 0 -7 58 c-15 131 -70 214 -163 246 -57 19 -145
20 -197 0z m133 -100 c38 -8 91 -57 91 -85 0 -18 -8 -19 -125 -19 -137 0 -144
3 -103 55 20 26 69 54 94 55 6 0 26 -3 43 -6z"/>
<path d="M11553 7669 c-57 -28 -87 -78 -87 -144 0 -69 26 -103 116 -150 116
-60 144 -99 100 -138 -38 -35 -116 -9 -133 42 -4 10 -18 7 -57 -13 -29 -14
-52 -30 -52 -34 0 -21 56 -84 90 -102 81 -41 208 -19 258 45 47 60 53 152 14
204 -10 14 -61 48 -112 76 -108 58 -123 74 -96 104 25 28 42 26 73 -5 l26 -26
41 22 c61 34 62 36 31 76 -49 65 -134 82 -212 43z"/>
<path d="M10500 7674 c0 -3 40 -56 88 -117 49 -62 92 -118 96 -125 5 -8 -26
-54 -91 -133 -54 -67 -108 -134 -121 -150 l-23 -29 78 1 78 0 79 100 c44 54
83 99 87 99 4 0 43 -45 85 -100 l79 -100 73 0 c56 0 71 3 66 13 -4 6 -57 74
-117 150 l-109 137 94 118 c52 64 97 123 102 130 5 9 -10 12 -68 12 l-75 0
-62 -80 c-34 -44 -65 -80 -69 -80 -4 0 -22 21 -40 47 -79 109 -84 113 -161
113 -38 0 -69 -3 -69 -6z"/>
<path d="M11187 7673 c-4 -3 -7 -129 -7 -280 l0 -273 65 0 65 0 0 280 0 280
-58 0 c-32 0 -62 -3 -65 -7z"/>
<path d="M9961 6868 c-80 -41 -86 -57 -89 -239 l-3 -159 -25 0 c-23 0 -24 -3
-24 -59 0 -54 2 -60 23 -63 22 -3 22 -3 25 -220 l2 -218 60 0 60 0 0 220 0
220 70 0 70 0 0 60 0 60 -71 0 -71 0 4 128 c3 70 8 135 13 145 11 25 47 31 89
13 l36 -15 0 64 c0 35 -5 67 -10 70 -6 4 -34 9 -63 11 -41 4 -61 1 -96 -18z"/>
<path d="M8670 6350 l0 -440 195 0 195 0 0 60 0 60 -130 0 -130 0 0 380 0 380
-65 0 -65 0 0 -440z"/>
<path d="M9311 6466 c-48 -17 -106 -69 -138 -123 -21 -37 -28 -62 -31 -127 -5
-97 7 -148 51 -212 44 -67 117 -104 201 -104 60 0 135 25 150 49 12 19 26 12
26 -14 0 -24 2 -25 65 -25 l65 0 0 280 0 281 -62 -3 c-60 -3 -63 -4 -68 -31
l-5 -29 -27 21 c-62 49 -153 64 -227 37z m179 -118 c65 -33 93 -91 87 -177 -3
-41 -12 -73 -24 -90 -74 -99 -210 -95 -263 8 -24 48 -27 148 -6 189 28 54 82
89 141 91 12 1 41 -9 65 -21z"/>
<path d="M10400 6469 c-14 -6 -35 -20 -47 -31 l-23 -21 0 27 c0 27 0 27 -62
24 l-63 -3 -3 -277 -2 -278 64 0 65 0 3 189 c3 174 5 192 24 218 28 37 81 51
121 31 l30 -15 27 54 c14 29 26 56 26 59 0 3 -16 12 -35 20 -39 16 -89 17
-125 3z"/>
<path d="M10781 6466 c-48 -17 -106 -69 -138 -123 -21 -37 -28 -62 -31 -127
-5 -97 7 -148 51 -212 44 -67 117 -104 201 -104 60 0 135 25 150 49 12 19 26
12 26 -14 0 -24 2 -25 65 -25 l65 0 0 280 0 281 -62 -3 c-60 -3 -63 -4 -68
-31 l-5 -29 -27 21 c-62 49 -153 64 -227 37z m179 -118 c65 -33 93 -91 87
-177 -3 -41 -12 -73 -24 -90 -74 -99 -210 -95 -263 8 -24 48 -27 148 -6 189
28 54 82 89 141 91 12 1 41 -9 65 -21z"/>
<path d="M11548 6470 c-15 -4 -41 -18 -58 -30 l-30 -21 0 26 c0 26 -1 26 -62
23 l-63 -3 -3 -277 -2 -278 64 0 64 0 4 188 c2 154 6 193 20 219 31 56 131 69
174 22 17 -19 19 -42 22 -225 l3 -204 65 0 64 0 0 193 c-1 205 -8 262 -42 310
-39 55 -140 81 -220 57z"/>
<path d="M12152 6465 c-87 -27 -161 -99 -190 -184 -19 -55 -14 -160 9 -211 25
-55 80 -114 134 -143 33 -18 57 -22 135 -22 58 0 108 5 128 14 l32 13 0 80 0
80 -36 -32 c-45 -39 -73 -50 -128 -50 -51 0 -99 29 -133 79 -18 26 -23 48 -23
93 0 74 22 122 69 153 74 48 151 41 214 -20 l37 -36 0 85 0 85 -52 16 c-62 18
-138 18 -196 0z"/>
<path d="M12676 6464 c-59 -21 -98 -56 -131 -115 -37 -69 -47 -197 -21 -276
37 -110 127 -173 250 -173 102 0 142 16 209 81 31 32 57 62 57 67 0 5 -23 21
-51 37 l-51 27 -43 -48 -43 -49 -65 0 c-56 0 -69 4 -92 25 -15 14 -34 39 -41
57 -28 65 -35 63 187 63 l202 0 -7 58 c-15 131 -70 214 -163 246 -57 19 -145
20 -197 0z m133 -100 c38 -8 91 -57 91 -85 0 -18 -8 -19 -125 -19 -137 0 -144
3 -103 55 20 26 69 54 94 55 6 0 26 -3 43 -6z"/>
</g>
</svg>
